<svg xmlns="http://www.w3.org/2000/svg" width="420" height="206" viewBox="0 0 420 206" role="img" aria-labelledby="title desc">
<title id="title">Most used languages</title>
<desc id="desc">Python 74.1%, TypeScript 21.4%, Shell 1.7%, Dockerfile 1.2%, Other 1.7%</desc>
<rect x="0.5" y="0.5" width="419" height="205" rx="10" fill="#0d1117" stroke="#30363d"/>
<g font-family="-apple-system,BlinkMacSystemFont,'Segoe UI','Noto Sans',Helvetica,Arial,sans-serif">
<text x="24" y="32" font-size="15" font-weight="600" fill="#e6edf3">Most used languages</text>
<text x="24" y="50" font-size="11.5" fill="#9198a1">Share of code across my public repositories</text>
<text x="24" y="80" font-size="13" fill="#e6edf3">Python</text>
<path d="M118 71h214.00q4.0 0 4.0 4.0v2.0q0 4.0 -4.0 4.0h-214.00z" fill="#3987e5"/>
<text x="396" y="80" font-size="12.5" text-anchor="end" fill="#9198a1" style="font-variant-numeric:tabular-nums">74.1%</text>
<text x="24" y="106" font-size="13" fill="#e6edf3">TypeScript</text>
<path d="M118 97h58.81q4.0 0 4.0 4.0v2.0q0 4.0 -4.0 4.0h-58.81z" fill="#3987e5"/>
<text x="396" y="106" font-size="12.5" text-anchor="end" fill="#9198a1" style="font-variant-numeric:tabular-nums">21.4%</text>
<text x="24" y="132" font-size="13" fill="#e6edf3">Shell</text>
<path d="M118 123h2.50q2.495591815748484 0 2.495591815748484 2.495591815748484v5.008816368503032q0 2.495591815748484 -2.495591815748484 2.495591815748484h-2.50z" fill="#3987e5"/>
<text x="396" y="132" font-size="12.5" text-anchor="end" fill="#9198a1" style="font-variant-numeric:tabular-nums">1.7%</text>
<text x="24" y="158" font-size="13" fill="#e6edf3">Dockerfile</text>
<path d="M118 149h1.72q1.7175737595838312 0 1.7175737595838312 1.7175737595838312v6.564852480832338q0 1.7175737595838312 -1.7175737595838312 1.7175737595838312h-1.72z" fill="#3987e5"/>
<text x="396" y="158" font-size="12.5" text-anchor="end" fill="#9198a1" style="font-variant-numeric:tabular-nums">1.2%</text>
<text x="24" y="184" font-size="13" fill="#e6edf3">Other</text>
<path d="M118 175h2.46q2.459328262283182 0 2.459328262283182 2.459328262283182v5.081343475433636q0 2.459328262283182 -2.459328262283182 2.459328262283182h-2.46z" fill="#3987e5"/>
<text x="396" y="184" font-size="12.5" text-anchor="end" fill="#9198a1" style="font-variant-numeric:tabular-nums">1.7%</text>
</g>
</svg>
